<svg xmlns="http://www.w3.org/2000/svg" viewBox="0 0 32 32"><path d="M6.661 9.375V5.339H4q-.357 0-.536-.089-.25-.125-.411-.286-.179-.179-.304-.429-.089-.179-.089-.536t.089-.536q.107-.214.286-.393.214-.214.429-.321.179-.089.536-.089h5.339v6.679h20V22.66H6.66V9.374zM9.339 20H26.66v-8H9.339zm4 6.661q0 .571-.179 1.036-.179.5-.589.875-.375.393-.893.589-.464.179-1.018.179-.536 0-1-.179t-.875-.589q-.429-.411-.589-.875Q8 27.197 8 26.661q0-.5.196-1 .179-.464.589-.875t.875-.589q.5-.196 1-.196.518 0 1.018.196.464.161.875.589.429.429.607.875.179.464.179 1zm12 2.678q-.554 0-1.018-.179-.5-.179-.875-.589-.429-.411-.607-.875t-.179-1.036q0-.536.179-1 .179-.446.607-.875.411-.429.875-.589.5-.196 1.018-.196.5 0 1 .196.464.179.875.589t.589.875q.196.5.196 1 0 .536-.196 1.036-.161.464-.589.875-.411.411-.875.589t-1 .179z" fill="#ffffff"/></svg>